<svg width="398" height="370" viewBox="0 0 398 370" fill="none" xmlns="http://www.w3.org/2000/svg">
<path fill-rule="evenodd" clip-rule="evenodd" d="M188.54 193.599C178.698 194.734 171.146 194.598 165.884 193.19C160.621 191.783 156.471 188.789 153.433 184.21C150.122 177.205 148.285 173.191 147.922 172.167C146.146 167.15 145.95 162.218 146.289 158.9C146.733 154.566 149.114 148.919 153.433 141.959C154.048 137.12 155.069 132.833 156.495 129.1C157.921 125.367 160.778 119.992 165.067 112.976L165.68 89.9112C167.489 84.6317 169.19 80.8897 170.782 78.6852C172.375 76.4806 174.212 75.324 176.293 75.2153C178.05 75.0485 179.683 75.4567 181.192 76.4399C182.701 77.4232 185.559 79.9406 189.764 83.992C193.238 77.9305 197.184 73.304 201.603 70.1126C206.022 66.9212 211.873 64.4718 219.156 62.7646L220.177 60.7235L220.3 48.7178L216.911 19.4935H212.42L219.36 9.288C219.979 7.03929 220.592 5.40642 221.197 4.38938C221.802 3.37233 222.933 2.21576 224.589 0.919674C224.62 0.543861 225.981 0.339596 228.675 0.306878C231.368 0.274159 235.611 0.410336 241.404 0.715408C243.877 1.2834 245.578 2.0318 246.507 2.96061C247.435 3.88942 248.252 5.86248 248.956 8.87978L258.906 19.5078L252.63 19.9017L252.017 39.2921C251.144 42.6175 250.328 44.8627 249.568 46.0277C248.808 47.1926 247.584 48.0771 245.894 48.6811L235.893 49.2934L234.668 61.1318L235.485 62.7646C240.593 64.2247 244.063 65.3814 245.894 66.2345C250.293 68.2833 254.271 71.2501 257.324 76.4399C259.461 80.0732 261.673 85.0926 264.672 90.3194C267.312 94.9214 272.143 103.018 279.164 114.608L286.104 120.732L289.573 127.671L297.942 133.999L301.82 121.344C293.928 109.37 289.982 101.75 289.982 98.4838C289.982 97.1187 290.806 95.8321 291.614 95.0139C292.74 93.8745 294.286 93.1743 296.921 93.381C298.678 93.5188 300.379 94.6074 302.024 96.6468L325.496 159.717C323.16 167.373 321.119 173.088 319.373 176.862C317.627 180.636 315.042 184.378 311.617 188.088C306.682 190.856 302.532 192.489 299.166 192.986C295.801 193.484 290.29 193.008 282.634 191.558C279.953 190.33 278.184 189.174 277.327 188.088C274.151 184.061 272.822 178.954 271.204 176.249C268.93 172.45 267.569 168.912 267.121 165.636L256.508 131.141L210.583 129.712L206.297 164.615C203.954 174.101 201.437 181.041 198.745 185.434C196.053 189.828 192.652 192.549 188.54 193.599Z" fill="white"/>
<path fill-rule="evenodd" clip-rule="evenodd" d="M191.704 201.117C190.872 200.967 190.26 200.893 189.865 200.894C188.352 200.901 187.116 200.823 186.393 199.669C185.387 198.064 185.659 196.157 187.21 193.949L191.499 192.52H193.542L208.453 193.132L213.152 192.52L229.697 191.907C231.467 192.724 232.08 194.29 231.535 196.605C230.991 198.92 229.493 200.35 227.042 200.894L222.139 201.117L189.048 352.849H167.805C171.441 329.012 174.369 311.085 176.588 299.068C178.807 287.051 183.846 254.401 191.704 201.117ZM243.587 201.117C243.555 200.635 242.261 200.561 239.706 200.894C237.527 199.805 236.642 198.103 237.051 195.788C237.459 193.473 238.481 192.247 240.115 192.111L243.179 192.52H252.575L261.971 193.132L272.389 192.111C275.657 192.383 277.291 193.881 277.291 196.605C277.291 198.153 276.769 198.957 276.065 199.669C275.709 200.029 275.028 200.438 274.023 200.894L270.754 201.117L279.129 353.054H257.069C254.097 325.731 252.19 306.577 251.349 295.592C250.348 282.508 244.681 217.475 243.587 201.117Z" fill="white"/>
<path fill-rule="evenodd" clip-rule="evenodd" d="M191.704 200.913H222.139L189.048 352.646H167.805C171.441 328.809 174.369 310.882 176.588 298.865C178.807 286.848 183.846 254.197 191.704 200.913ZM243.587 200.913H270.754L279.129 352.851H257.069C254.097 325.528 252.19 306.374 251.349 295.388C250.348 282.305 244.681 217.272 243.587 200.913Z" stroke="#263E4B" stroke-width="0.955316"/>
<path fill-rule="evenodd" clip-rule="evenodd" d="M210.7 65.5391L187.67 65.6473C176.18 65.7013 166.733 74.7206 166.148 86.1956L165.762 93.7589C166.122 89.8697 166.598 87.1432 167.192 85.5792C168.134 83.0967 169.222 81.6687 170.46 80.058C172.332 77.6225 174.452 75.5676 176.179 75.1502C180.128 74.1959 184.554 77.2633 189.457 84.3523C190.278 82.7642 190.959 81.5373 191.499 80.6714C192.579 78.9428 193.728 77.0761 195.789 75.1502C199.874 71.333 204.845 68.1293 210.7 65.5391Z" fill="#BAD9EA"/>
<path fill-rule="evenodd" clip-rule="evenodd" d="M191.908 192.12C194.009 192.886 197.958 193.227 203.755 193.142C206.912 193.096 212.594 192.153 217.441 191.915C220.144 191.782 224.229 191.782 229.697 191.915L234.395 179.441H238.889L240.319 191.915C245.099 192.214 248.504 192.419 250.532 192.529C254.895 192.765 258.524 192.938 261.358 192.938C266.17 192.938 269.71 192.597 271.98 191.915L261.562 133.635L213.152 135.475C212.519 144.35 210.204 154.098 206.207 164.718C205.355 166.981 205.218 169.842 204.368 172.693C203.072 177.037 201.645 181.238 200.079 184.144C198.592 186.901 195.869 189.559 191.908 192.12Z" fill="#BAD9EA"/>
<path d="M271.656 192.051L266.979 164.77C266.95 164.603 267.062 164.444 267.229 164.415C267.396 164.387 267.554 164.499 267.583 164.666L272.237 191.813H272.898C275.493 191.813 277.596 193.919 277.596 196.516C277.596 199.114 275.493 201.219 272.898 201.219H240.667C238.367 201.219 236.502 199.353 236.502 197.05C236.502 196.857 236.515 196.665 236.542 196.474L236.787 194.718C237.007 193.138 238.23 191.901 239.779 191.647L238.61 179.748H234.606L230.116 191.67C231.368 191.96 232.256 193.13 232.154 194.453C232.145 194.567 232.129 194.68 232.106 194.792L231.732 196.579C231.167 199.283 228.785 201.219 226.026 201.219H188.658C186.936 201.219 185.54 199.822 185.54 198.098C185.54 197.772 185.591 197.448 185.692 197.137C185.964 196.294 186.304 195.205 186.711 193.87C186.761 193.708 186.932 193.617 187.094 193.667C187.256 193.716 187.347 193.888 187.298 194.05C186.889 195.387 186.548 196.48 186.275 197.326C186.194 197.576 186.153 197.836 186.153 198.098C186.153 199.483 187.275 200.606 188.658 200.606H226.026C228.495 200.606 230.626 198.873 231.132 196.453L231.506 194.666C231.524 194.58 231.536 194.493 231.543 194.406C231.629 193.288 230.796 192.312 229.681 192.222C227.146 192.172 225.353 192.147 224.303 192.145C221.459 192.142 213.439 192.608 211.761 192.833C207.953 193.343 205.936 193.416 202.641 193.305C202.534 193.302 202.534 193.302 202.427 193.298C201.25 193.258 200.687 193.244 199.936 193.244C197.211 193.244 195.176 193.176 193.825 193.038C192.24 192.877 191.522 192.651 191.603 192.076L192.21 192.163C192.216 192.118 192.204 192.085 192.196 192.07C192.239 192.103 192.327 192.144 192.457 192.185C192.758 192.28 193.237 192.362 193.887 192.428C195.213 192.563 197.23 192.631 199.936 192.631C200.696 192.631 201.264 192.645 202.448 192.685C202.555 192.689 202.555 192.689 202.662 192.692C205.924 192.802 207.908 192.73 211.68 192.225C213.387 191.996 221.433 191.529 224.303 191.532C225.329 191.533 227.057 191.557 229.486 191.604L234.107 179.333C234.152 179.214 234.267 179.134 234.394 179.134H238.888H241.543C241.713 179.134 241.85 179.272 241.85 179.441C241.85 179.611 241.713 179.748 241.543 179.748H239.226L240.398 191.681C241.751 191.904 244.454 192.017 248.488 192.017C250.005 192.017 257.416 192.432 259.547 192.632C261.976 192.861 266.016 192.668 271.656 192.051ZM271.99 192.426L272.013 192.629C266.183 193.275 262.013 193.48 259.49 193.243C257.376 193.044 249.983 192.631 248.488 192.631C244.175 192.631 241.371 192.503 240.054 192.242L240.057 192.228C238.687 192.37 237.585 193.43 237.393 194.803L237.149 196.559C237.126 196.721 237.115 196.886 237.115 197.05C237.115 199.014 238.705 200.606 240.667 200.606H272.898C275.154 200.606 276.983 198.775 276.983 196.516C276.983 194.257 275.154 192.426 272.898 192.426H271.99Z" fill="#263E4B"/>
<path d="M236.32 49.282L235.131 61.8502C244.814 65.1447 251.005 68.0057 253.728 70.458C257.26 73.6378 266.312 92.0163 270.952 104.078C272.353 107.72 274.524 110.028 279.794 114.298L280.238 114.657C285.53 118.946 287.693 121.262 289.018 124.942C291.063 130.624 295.155 131.99 301.47 129.062C301.623 128.991 301.805 129.058 301.876 129.211C301.948 129.365 301.881 129.548 301.727 129.619C295.103 132.69 290.616 131.192 288.441 125.15C287.168 121.61 285.059 119.354 279.852 115.134L279.409 114.775C274.057 110.439 271.832 108.074 270.38 104.298C265.781 92.3424 256.747 74.0011 253.318 70.9141C250.656 68.5164 244.443 65.6544 234.705 62.3533C234.571 62.3076 234.485 62.1754 234.499 62.0338L235.705 49.282H232.148C231.979 49.282 231.842 49.1447 231.842 48.9753C231.842 48.8059 231.979 48.6686 232.148 48.6686H236.038C236.04 48.6685 236.043 48.6685 236.045 48.6686H242.849C247.065 48.6686 249.511 46.9524 250.788 43.4842C251.814 40.6973 252.064 37.476 252.064 30.5898V25.8997C252.064 25.8348 252.064 25.7821 252.064 25.6628C252.067 23.3827 251.962 22.069 251.474 20.0658C251.463 20.0539 251.448 20.0392 251.431 20.0222C251.384 19.9744 251.317 19.9119 251.232 19.8353H222.02C221.85 19.8353 221.713 19.6979 221.713 19.5285C221.713 19.3591 221.85 19.2218 222.02 19.2218H251.349C251.424 19.2218 251.496 19.2492 251.552 19.2989C251.914 19.6195 252.021 19.7272 252.055 19.8642C252.569 21.9563 252.68 23.3173 252.677 25.6636C252.677 25.7828 252.677 25.8352 252.677 25.8997V30.5898C252.677 37.5536 252.424 40.8153 251.363 43.6964C249.997 47.4051 247.323 49.282 242.849 49.282H236.32ZM325.816 159.314L326.404 159.487C321.272 176.937 315.821 187.109 309.986 190.021C300.8 194.605 289.567 194.958 280.424 190.469C279.216 189.875 278.267 189.046 277.305 187.773C276.618 186.865 275.941 185.773 274.86 183.877C274.577 183.381 273.5 181.471 273.341 181.19C272.664 179.996 272.079 178.979 271.456 177.92C270.601 176.469 269.389 173.265 267.807 168.287L268.391 168.101C269.959 173.034 271.161 176.211 271.984 177.609C272.609 178.671 273.196 179.691 273.874 180.888C274.033 181.169 275.11 183.078 275.392 183.573C276.461 185.447 277.127 186.522 277.793 187.403C278.701 188.604 279.577 189.37 280.694 189.918C289.659 194.32 300.692 193.974 309.712 189.472C315.341 186.664 320.731 176.605 325.816 159.314Z" fill="#263E4B"/>
<path fill-rule="evenodd" clip-rule="evenodd" d="M241.748 64.722L245.425 66.1535C248.012 74.0605 249.987 80.8087 251.349 86.3981C252.71 91.9875 253.596 100.304 254.004 111.346L248.898 109.915C249.306 101.053 248.557 93.2145 246.651 86.3981C245.82 83.4292 244.186 76.2038 241.748 64.722ZM210.496 65.54L213.968 64.1086C214.785 70.1524 215.194 74.9239 215.194 78.4229C215.194 81.922 215.194 85.4665 215.194 89.0565L209.883 96.6227C210.7 94.1688 211.108 88.6475 211.108 80.0589C211.108 71.4702 210.904 66.6306 210.496 65.54Z" fill="#BAD9EA"/>
<path d="M241.652 64.7855L241.534 64.23L245.875 65.9198L245.92 66.0577C248.509 73.9717 250.486 80.7272 251.85 86.3251C253.218 91.9386 254.105 100.273 254.514 111.334L254.529 111.754L248.784 110.144L248.795 109.9C249.202 101.07 248.456 93.2634 246.559 86.4805C245.726 83.5028 244.092 76.2744 241.652 64.7855ZM247.149 86.3151C249.048 93.1023 249.803 100.892 249.418 109.685L253.886 110.937C253.471 100.122 252.593 91.9649 251.255 86.4705C249.903 80.922 247.945 74.2271 245.382 66.3865L242.37 65.2135C244.741 76.366 246.335 83.403 247.149 86.3151ZM210.412 65.6474L210.308 65.3692L214.422 63.6733L214.475 64.0671C215.294 70.1234 215.704 74.9075 215.704 78.4226V89.1532L209.134 98.5127L209.796 96.5254C210.599 94.1143 211.006 88.6128 211.006 80.0586C211.006 71.5377 210.801 66.6844 210.412 65.6474ZM211.618 80.0586C211.618 87.1497 211.341 92.1566 210.78 95.1003L215.091 88.9592V78.4226C215.091 75.0158 214.701 70.3883 213.921 64.5433L211.071 65.7182C211.442 67.2538 211.618 71.9938 211.618 80.0586Z" fill="#263E4B"/>
<path d="M235.939 65.6269L236.527 65.4526L264.314 159.344C265.902 167.642 271.626 171.773 281.58 171.773C291.539 171.773 299.727 165.118 306.153 151.749L306.705 152.015C300.187 165.576 291.809 172.386 281.58 172.386C271.347 172.386 265.359 168.065 263.72 159.488L235.939 65.6269ZM251.046 141.564L251.652 141.657C248.499 162.106 242.572 172.386 233.782 172.386C226.671 172.386 221.939 150.238 219.994 107.884C219.628 99.8974 219.423 86.2611 219.381 66.9718L219.994 66.9705C220.036 86.2513 220.24 99.8805 220.607 107.855C222.526 149.658 227.251 171.773 233.782 171.773C242.151 171.773 247.935 161.74 251.046 141.564Z" fill="#263E4B"/>
<path fill-rule="evenodd" clip-rule="evenodd" d="M281.571 131.505L302.974 129.256L304.24 141.3L282.837 143.55L281.571 131.505ZM261.719 109.912L259.707 90.7745C260.515 88.7051 262.641 87.4894 266.086 87.1272C269.532 86.7651 271.865 87.5122 273.084 89.3685L275.096 108.506L261.719 109.912ZM317.902 104.007L304.525 105.413L302.514 86.2754C303.321 84.206 305.447 82.9903 308.893 82.6281C312.338 82.266 314.671 83.0131 315.891 84.8694L317.902 104.007Z" fill="#263E4B"/>
<path fill-rule="evenodd" clip-rule="evenodd" d="M260.037 131.163L256.929 101.586C258.231 98.3822 261.639 96.4905 267.152 95.911C272.665 95.3316 276.392 96.4734 278.332 99.3365L281.441 128.913L260.037 131.163ZM324.247 124.414L302.844 126.664L299.735 97.087C301.038 93.883 304.445 91.9913 309.958 91.4119C315.471 90.8325 319.198 91.9743 321.138 94.8374L324.247 124.414Z" fill="white"/>
<path fill-rule="evenodd" clip-rule="evenodd" d="M259.905 131.246L256.796 101.669C258.099 98.4649 261.507 96.5732 267.019 95.9938C272.532 95.4143 276.259 96.5562 278.199 99.4192L281.308 128.996L259.905 131.246ZM324.114 124.497L302.711 126.746L299.603 97.1697C300.905 93.9657 304.313 92.0741 309.826 91.4946C315.339 90.9152 319.065 92.057 321.006 94.9201L324.114 124.497Z" fill="white" stroke="#263E4B" stroke-width="0.955316" stroke-linecap="round" stroke-linejoin="round"/>
<path fill-rule="evenodd" clip-rule="evenodd" d="M259.379 163.943L255.782 129.727C257.643 125.984 262.363 123.713 269.944 122.917C277.524 122.12 282.613 123.359 285.212 126.634L288.808 160.85L259.379 163.943ZM331.614 156.351L302.185 159.444L298.589 125.228C300.449 121.484 305.17 119.214 312.75 118.417C320.33 117.621 325.42 118.86 328.018 122.135L331.614 156.351Z" fill="white"/>
<path d="M259.317 164.258C259.148 164.276 258.998 164.154 258.98 163.985L255.384 129.769C255.378 129.711 255.388 129.652 255.414 129.6C257.332 125.742 262.144 123.428 269.818 122.621C277.491 121.815 282.68 123.078 285.358 126.453C285.394 126.499 285.416 126.554 285.423 126.612L289.019 160.828C289.036 160.996 288.914 161.147 288.746 161.165L259.317 164.258ZM288.377 160.587L284.823 126.765C282.286 123.642 277.314 122.45 269.882 123.231C262.449 124.012 257.834 126.212 256.003 129.795L259.557 163.616L288.377 160.587ZM331.825 156.329C331.843 156.497 331.721 156.648 331.553 156.666L302.123 159.759C301.955 159.777 301.804 159.654 301.786 159.486L298.19 125.27C298.184 125.212 298.195 125.153 298.22 125.101C300.138 121.243 304.95 118.929 312.624 118.122C320.298 117.316 325.486 118.579 328.164 121.954C328.2 121.999 328.223 122.055 328.229 122.113L331.825 156.329ZM331.184 156.088L327.629 122.266C325.093 119.143 320.121 117.951 312.688 118.732C305.256 119.513 300.64 121.713 298.809 125.295L302.364 159.117L331.184 156.088Z" fill="#263E4B"/>
<path fill-rule="evenodd" clip-rule="evenodd" d="M274.527 167.425C266.401 168.28 259.576 166.725 259.285 163.953C258.994 161.182 265.346 158.242 273.472 157.388C281.599 156.534 288.423 158.088 288.714 160.86C289.006 163.632 282.654 166.571 274.527 167.425ZM317.334 162.926C309.207 163.78 302.383 162.226 302.091 159.454C301.8 156.682 308.152 153.743 316.279 152.889C324.405 152.035 331.23 153.589 331.521 156.361C331.812 159.133 325.46 162.072 317.334 162.926Z" fill="#263E4B"/>
<path d="M252.05 136.945C254.619 136.675 256.483 134.372 256.213 131.802C255.943 129.231 253.641 127.366 251.072 127.636C248.502 127.906 246.638 130.209 246.909 132.779C247.179 135.35 249.481 137.215 252.05 136.945ZM251.986 136.335C249.753 136.57 247.753 134.949 247.518 132.715C247.283 130.482 248.903 128.481 251.136 128.246C253.369 128.011 255.369 129.632 255.604 131.866C255.838 134.099 254.219 136.1 251.986 136.335Z" fill="#263E4B"/>
<path d="M153.971 142.007L158.099 140.505C158.258 140.447 158.434 140.529 158.492 140.688C158.55 140.847 158.468 141.023 158.309 141.081L154.639 142.417L158.36 144.619C158.506 144.705 158.554 144.893 158.468 145.039C158.382 145.185 158.194 145.233 158.048 145.147L153.893 142.689L153.815 142.717C153.779 142.73 153.742 142.736 153.705 142.736C146.203 152.737 144.468 162.603 148.478 172.372C152.388 181.896 154.145 185.295 157.107 188.229C160.521 191.611 165.223 193.369 173.353 194.269C188.685 195.968 197.64 190.881 201.628 179.544C204.12 172.461 205.545 167.501 205.902 164.68C205.924 164.512 206.077 164.393 206.245 164.414C206.413 164.435 206.532 164.589 206.51 164.757C206.146 167.634 204.711 172.625 202.206 179.748C198.119 191.366 188.89 196.608 173.286 194.879C165.031 193.964 160.205 192.16 156.676 188.665C153.633 185.651 151.855 182.211 147.912 172.606C143.792 162.571 145.609 152.423 153.341 142.201C154.173 131.822 157.936 122.107 164.627 113.062C171.298 104.045 178.173 97.2665 185.254 92.7276C190.039 80.0336 196.988 71.5325 206.103 67.243C210.644 65.1059 214.052 63.6853 216.334 62.9799C217.862 62.5074 218.949 62.3334 219.557 62.5252L220.608 43.2338C220.617 43.0647 220.761 42.935 220.93 42.9434C221.099 42.9535 221.229 43.0981 221.219 43.2672L220.127 63.3358C220.105 63.7332 219.515 63.7171 219.515 63.3191C219.515 62.9436 218.569 62.9307 216.514 63.566C214.266 64.2611 210.881 65.6723 206.363 67.7982C197.384 72.0241 190.526 80.4315 185.791 93.0391C185.768 93.1013 185.725 93.1542 185.669 93.1898C178.626 97.6852 171.776 104.431 165.12 113.428C158.548 122.311 154.833 131.836 153.971 142.007Z" fill="#263E4B"/>
<path fill-rule="evenodd" clip-rule="evenodd" d="M219.892 60.836L217.022 68.103C216.857 68.5227 217.063 68.9973 217.482 69.1631C217.648 69.2284 217.83 69.238 218.001 69.1905L230.258 65.7898L238.37 68.6793C238.795 68.8307 239.262 68.6088 239.414 68.1838C239.504 67.9295 239.463 67.647 239.304 67.4288L234.804 61.245C233.969 61.972 232.181 62.3356 229.438 62.3356C226.696 62.3356 223.514 61.8357 219.892 60.836Z" fill="white"/>
<path d="M230.066 66.0137L218.286 69.2819C218.05 69.3472 217.8 69.3339 217.573 69.244C216.996 69.0156 216.713 68.3622 216.941 67.7846L219.81 60.5191C219.868 60.3734 220.026 60.2946 220.177 60.3362C223.774 61.3291 226.929 61.8248 229.641 61.8248C232.314 61.8248 234.043 61.4733 234.805 60.8095C234.941 60.6915 235.148 60.7149 235.254 60.8603L239.753 67.0419C239.972 67.3422 240.028 67.7312 239.904 68.0812C239.696 68.6664 239.053 68.9721 238.469 68.7638L230.68 65.9894C230.694 66.1057 230.71 66.2423 230.728 66.3992C230.804 67.0645 230.919 68.096 231.073 69.4938C231.379 72.2889 231.839 76.5493 232.452 82.2753C232.47 82.4438 232.348 82.5949 232.179 82.613C232.011 82.631 231.86 82.5091 231.842 82.3407C231.229 76.6152 230.77 72.3552 230.463 69.5608C230.31 68.1639 230.196 67.1334 230.119 66.4695C230.098 66.2909 230.081 66.139 230.066 66.0137ZM230.058 62.4354C230.125 62.6984 230.189 62.9911 230.251 63.3108C230.351 63.832 230.43 64.3332 230.522 64.9947L230.561 65.2748C230.563 65.2825 230.564 65.2899 230.565 65.2972L238.674 68.1858C238.94 68.2805 239.232 68.1416 239.327 67.8756C239.383 67.7165 239.357 67.5396 239.258 67.4031L234.943 61.4738C234.017 62.0906 232.394 62.4028 230.058 62.4354ZM229.961 65.4061C229.959 65.3919 229.957 65.3767 229.955 65.3606L229.915 65.0798C229.824 64.4279 229.747 63.9354 229.649 63.4269C229.578 63.0549 229.503 62.723 229.425 62.4372C226.771 62.4124 223.723 61.933 220.279 61.0002L217.511 68.0101C217.407 68.2727 217.536 68.5697 217.798 68.6735C217.901 68.7144 218.015 68.7204 218.122 68.6907L229.961 65.4061Z" fill="#263E4B"/>
<path fill-rule="evenodd" clip-rule="evenodd" d="M188.23 131.037C205.181 103.989 214.917 89.0608 217.44 86.2535C219.408 84.0624 222.781 83.8823 224.972 85.851C226.611 87.3244 227.176 89.6548 226.392 91.7151L220.299 107.725" fill="white"/>
<path d="M188.42 131.344C205.352 104.327 215.094 89.3893 217.598 86.6026C219.455 84.5364 222.633 84.3681 224.697 86.2268C226.241 87.6175 226.772 89.816 226.033 91.7594L219.944 107.76L220.517 107.978L226.605 91.9777C227.435 89.7975 226.84 87.331 225.107 85.7707C222.791 83.6855 219.226 83.8742 217.143 86.1923C214.602 89.0202 204.871 103.939 187.901 131.018L188.42 131.344Z" fill="#263E4B"/>
<path fill-rule="evenodd" clip-rule="evenodd" d="M226.095 31.6058C225.618 31.4651 225.113 31.3895 224.591 31.3895C221.658 31.3895 219.28 33.7699 219.28 36.7063C219.28 39.2012 220.996 41.2948 223.312 41.8679L223.072 46.815C223.007 48.1343 221.91 49.1656 220.589 49.147L214.285 49.0586C213.881 49.0529 213.479 48.9927 213.091 48.8797C210.708 48.1854 209.34 45.691 210.034 43.3082L216.962 19.529H217.782L217.785 19.5244L218.746 19.529H222.344L222.345 19.5463L230.89 19.5875C229.903 24.1254 229.017 27.1579 228.232 28.6849C227.671 29.7752 226.959 30.7488 226.095 31.6058ZM255.127 19.529C255.931 22.9372 254.686 24.6413 251.393 24.6413C248.099 24.6413 243.159 22.9372 236.571 19.529H255.127Z" fill="#263E4B"/>
<path fill-rule="evenodd" clip-rule="evenodd" d="M179.524 138.176L207.26 113.462C211.298 109.864 216.535 107.908 221.943 107.978L253.525 108.384C257.839 108.44 261.365 111.842 261.575 116.151C261.773 120.23 258.627 123.697 254.549 123.895C254.456 123.9 254.363 123.903 254.271 123.904L227.532 124.196C225.896 124.214 224.585 125.555 224.603 127.191C224.603 127.192 224.603 127.193 224.603 127.194C224.623 128.85 225.947 130.195 227.603 130.24L255.202 130.997C258.963 131.1 261.963 134.168 261.983 137.93C262.003 141.637 259.013 144.658 255.306 144.678C255.294 144.678 255.282 144.678 255.271 144.678H228.962C227.344 144.678 226.032 145.99 226.032 147.608C226.032 147.619 226.032 147.631 226.033 147.643C226.054 149.422 227.189 150.997 228.869 151.581L245.715 157.429C248.631 158.441 250.173 161.624 249.161 164.539C249.116 164.669 249.067 164.797 249.012 164.922C247.664 168.045 244.149 169.617 240.923 168.54L213.537 159.401L198.72 169.29C191.122 174.361 180.851 172.312 175.78 164.714C175.303 163.999 174.882 163.248 174.522 162.469C173.232 159.675 172.829 155.674 173.315 150.463C173.756 145.729 175.974 141.339 179.524 138.176Z" fill="white"/>
<path d="M178.421 167.22L183.587 163.895C181.814 162.2 180.383 160.119 179.174 157.698C177.421 154.189 177.997 147.48 180.869 137.527L179.89 138.399C176.393 141.516 174.207 145.844 173.774 150.511C173.296 155.663 173.694 159.607 174.956 162.34C175.308 163.101 175.718 163.834 176.183 164.533C176.845 165.526 177.597 166.423 178.421 167.22ZM178.884 167.651C184.268 172.464 192.412 173.235 198.698 169.04L200.127 168.086C194.447 169.113 189.827 168.275 186.125 165.896C185.387 165.422 184.698 164.898 184.053 164.324L178.884 167.651ZM181.195 136.415C181.196 136.414 181.196 136.412 181.197 136.41C181.232 136.294 181.33 136.213 181.442 136.195L207.215 113.231C211.308 109.583 216.616 107.6 222.096 107.671L253.694 108.077C258.165 108.135 261.82 111.665 262.037 116.136C262.244 120.384 258.971 123.995 254.729 124.202C254.632 124.206 254.535 124.209 254.439 124.21L227.689 124.503C226.224 124.519 225.049 125.721 225.065 127.187L225.065 127.19C225.083 128.682 226.275 129.893 227.764 129.933L255.374 130.69C259.296 130.798 262.425 134 262.446 137.928C262.466 141.805 259.344 144.964 255.471 144.984L255.434 144.985H229.115C227.668 144.985 226.495 146.159 226.495 147.608C226.495 147.623 226.495 147.623 226.495 147.639C226.515 149.289 227.566 150.749 229.123 151.29L245.977 157.141C249.047 158.206 250.673 161.562 249.608 164.636C249.561 164.774 249.508 164.91 249.45 165.044C248.038 168.314 244.362 169.959 240.987 168.832L213.738 159.74L199.037 169.551C191.295 174.718 180.835 172.624 175.674 164.873C175.191 164.148 174.765 163.388 174.4 162.597C173.085 159.75 172.677 155.704 173.164 150.455C173.611 145.633 175.87 141.161 179.483 137.941L181.195 136.415ZM181.733 136.758C178.666 147.087 178.008 153.992 179.722 157.424C181.416 160.815 183.549 163.512 186.456 165.38C190.241 167.812 195.032 168.575 201.035 167.281C201.119 167.263 201.202 167.281 201.268 167.325L213.648 159.063L241.181 168.25C244.254 169.276 247.601 167.778 248.887 164.801C248.939 164.681 248.987 164.559 249.029 164.435C249.983 161.682 248.527 158.675 245.776 157.72L228.923 151.869C227.121 151.244 225.905 149.555 225.882 147.647C225.882 147.627 225.882 147.627 225.882 147.608C225.882 145.82 227.33 144.371 229.115 144.371H255.434L255.468 144.371C259.002 144.352 261.852 141.469 261.833 137.931C261.814 134.335 258.948 131.402 255.357 131.303L227.747 130.547C225.929 130.497 224.474 129.018 224.453 127.197L224.452 127.194C224.433 125.389 225.879 123.909 227.682 123.889L254.432 123.597C254.521 123.596 254.61 123.593 254.699 123.589C258.604 123.399 261.615 120.075 261.425 116.166C261.223 112.019 257.833 108.744 253.686 108.691L222.088 108.284C216.761 108.216 211.601 110.144 207.622 113.689L181.733 136.758Z" fill="#263E4B"/>
<path fill-rule="evenodd" clip-rule="evenodd" d="M317.767 115.524L317.771 116.356C317.791 120.597 321.234 124.024 325.475 124.024H331.288C326.485 124.394 323.353 125.962 321.892 128.728C319.591 133.084 321.257 138.482 325.614 140.783C326.898 141.461 328.328 141.815 329.78 141.815H332.309L331.619 142.154C326.758 144.539 324.752 150.413 327.137 155.274C327.281 155.567 327.439 155.852 327.611 156.13C329.934 159.364 334.438 160.104 337.673 157.781C337.889 157.626 338.097 157.459 338.294 157.281L342.803 153.219C345.293 150.975 346.465 147.615 345.909 144.309C345.869 144.069 345.829 143.851 345.791 143.656C345.556 142.463 344.739 140.691 343.34 138.339C344.293 136.43 344.565 134.113 344.157 131.386C343.748 128.66 342.591 126.274 340.684 124.229C341.613 121.849 341.749 119.19 341.093 116.254C340.833 115.091 340.473 114.1 340.013 113.281C339.17 111.778 337.65 110.779 335.937 110.599L324.535 109.402C321.169 109.048 318.154 111.49 317.801 114.856C317.777 115.078 317.766 115.301 317.767 115.524Z" fill="white"/>
<path d="M332.395 141.303L343.255 137.881C344.132 136.055 344.378 133.839 343.987 131.226C343.589 128.569 342.464 126.246 340.609 124.249L340.607 124.33L331.193 124.146C326.628 124.542 323.675 126.055 322.296 128.666C320.075 132.871 321.68 138.081 325.88 140.305C327.119 140.96 328.499 141.303 329.901 141.303H332.395ZM332.557 141.896L331.881 142.227C327.18 144.534 325.237 150.22 327.541 154.926C327.682 155.212 327.836 155.491 327.993 155.745C330.219 158.846 334.534 159.553 337.632 157.324C337.836 157.177 338.033 157.018 338.221 156.849L342.726 152.79C345.142 150.613 346.279 147.35 345.738 144.14C345.699 143.908 345.66 143.698 345.623 143.51C345.404 142.395 344.64 140.72 343.333 138.499L332.557 141.896ZM331.422 123.537L340.606 123.717C341.444 121.446 341.552 118.914 340.927 116.116C340.674 114.982 340.324 114.02 339.881 113.229C339.086 111.811 337.654 110.868 336.039 110.699L324.635 109.501C321.438 109.166 318.574 111.488 318.238 114.69C318.216 114.901 318.206 115.113 318.206 115.325L318.21 116.149C318.229 120.221 321.532 123.513 325.6 123.513H331.421L331.422 123.537ZM321.754 128.379C322.845 126.314 324.819 124.899 327.661 124.126H325.6C321.195 124.126 317.618 120.562 317.598 116.152L317.594 115.327C317.593 115.093 317.604 114.859 317.629 114.626C317.999 111.088 321.165 108.52 324.699 108.891L336.103 110.089C337.915 110.279 339.523 111.338 340.415 112.929C340.89 113.775 341.259 114.793 341.525 115.982C342.177 118.902 342.061 121.562 341.171 123.956C343.043 126.014 344.184 128.41 344.593 131.135C345 133.85 344.744 136.18 343.821 138.119C345.185 140.429 345.986 142.181 346.225 143.391C346.263 143.585 346.302 143.801 346.342 144.038C346.918 147.455 345.708 150.928 343.136 153.246L338.631 157.305C338.426 157.489 338.212 157.662 337.989 157.822C334.617 160.249 329.919 159.479 327.484 156.086C327.305 155.798 327.14 155.501 326.991 155.196C324.614 150.342 326.481 144.509 331.151 141.917H329.901C328.399 141.917 326.921 141.549 325.593 140.847C321.094 138.465 319.375 132.883 321.754 128.379ZM325.591 111.134C325.76 111.132 325.899 111.267 325.901 111.437C325.904 111.606 325.769 111.745 325.599 111.748C323.341 111.78 322.339 113.131 322.533 115.961C322.727 118.803 323.733 120.078 325.576 119.95C325.745 119.938 325.891 120.065 325.903 120.234C325.915 120.403 325.787 120.55 325.619 120.562C323.378 120.718 322.137 119.144 321.921 116.002C321.705 112.848 322.948 111.172 325.591 111.134ZM328.519 128.626C328.688 128.612 328.836 128.737 328.85 128.906C328.865 129.075 328.739 129.223 328.571 129.237C326.32 129.427 325.414 130.845 325.805 133.654C326.198 136.476 327.29 137.678 329.119 137.421C329.287 137.397 329.442 137.514 329.465 137.682C329.489 137.85 329.372 138.005 329.205 138.028C326.98 138.341 325.632 136.858 325.198 133.738C324.762 130.606 325.886 128.848 328.519 128.626ZM332.814 146.514C332.98 146.479 333.142 146.585 333.177 146.751C333.212 146.917 333.106 147.08 332.94 147.114C330.729 147.577 330.003 149.094 330.733 151.835C331.467 154.588 332.698 155.648 334.482 155.17C334.645 155.126 334.813 155.223 334.857 155.387C334.901 155.55 334.804 155.719 334.64 155.762C332.471 156.344 330.952 155.036 330.141 151.993C329.327 148.937 330.227 147.055 332.814 146.514Z" fill="#263E4B"/>
<path fill-rule="evenodd" clip-rule="evenodd" d="M67.3953 201.401L77.314 304.988H82.4207L77.5571 200.404C77.4295 197.659 75.1013 195.538 72.3569 195.666C72.2729 195.669 72.189 195.675 72.1053 195.684C69.2271 195.964 67.1197 198.522 67.3953 201.401Z" fill="white"/>
<path d="M67.0906 201.237L77.0358 305.101H82.7419L77.8635 200.196C77.728 197.283 75.2564 195.031 72.343 195.166C72.2538 195.171 72.1647 195.177 72.0758 195.186C69.0294 195.483 66.7988 198.19 67.0906 201.237ZM77.5927 304.488L67.7006 201.179C67.4411 198.469 69.4253 196.06 72.1353 195.796C72.2138 195.788 72.2926 195.782 72.3714 195.779C74.9468 195.659 77.1316 197.649 77.2513 200.225L82.0999 304.488H77.5927Z" fill="#263E4B"/>
<path d="M74.8113 307.978C74.7473 308.135 74.5684 308.21 74.4117 308.146C74.2551 308.082 74.1801 307.903 74.2441 307.746C78.2866 297.862 80.64 290.956 81.3019 287.044C81.3301 286.877 81.4883 286.765 81.6551 286.793C81.822 286.822 81.9344 286.98 81.9061 287.147C81.2344 291.116 78.8702 298.054 74.8113 307.978ZM81.0775 273.395C81.1313 273.555 81.0448 273.729 80.8844 273.783C80.7239 273.837 80.5502 273.75 80.4964 273.59C78.6974 268.225 75.0626 263.647 69.5822 259.854C69.4431 259.758 69.4084 259.567 69.5047 259.428C69.601 259.289 69.7919 259.254 69.931 259.35C75.5158 263.216 79.2344 267.899 81.0775 273.395ZM76.6817 295.121C76.6119 295.275 76.4303 295.343 76.2762 295.274C76.1221 295.204 76.0537 295.022 76.1236 294.868C76.6702 293.662 77.036 292.68 77.2211 291.925C79.7643 281.556 78.1879 273.978 73.6854 268.592C73.5768 268.463 73.5941 268.269 73.7239 268.161C73.8538 268.052 74.047 268.07 74.1555 268.199C78.7865 273.739 80.4047 281.517 77.8163 292.071C77.6208 292.868 77.2426 293.883 76.6817 295.121ZM69.4592 196.337C69.4378 196.17 69.5565 196.016 69.7243 195.995C69.8922 195.973 70.0456 196.092 70.0671 196.26C72.7223 217.074 82.6863 228.081 100.002 229.373C100.171 229.386 100.297 229.533 100.285 229.701C100.272 229.87 100.125 229.997 99.9565 229.984C82.3291 228.669 72.1491 217.423 69.4592 196.337ZM73.9454 196.022C73.9294 195.854 74.053 195.704 74.2215 195.688C74.39 195.672 74.5395 195.796 74.5555 195.964C76.2959 214.292 84.5811 223.847 99.4662 224.942C99.6349 224.954 99.7617 225.101 99.7492 225.27C99.7368 225.439 99.59 225.565 99.4212 225.553C84.215 224.434 75.7123 214.628 73.9454 196.022Z" fill="#263E4B"/>
<path fill-rule="evenodd" clip-rule="evenodd" d="M237.051 33.4349C236.261 33.4349 235.621 32.7024 235.621 31.7989C235.621 30.8954 236.261 30.163 237.051 30.163C237.841 30.163 238.481 30.8954 238.481 31.7989C238.481 32.7024 237.841 33.4349 237.051 33.4349ZM249.715 33.4349C248.926 33.4349 248.285 32.7024 248.285 31.7989C248.285 30.8954 248.926 30.163 249.715 30.163C250.505 30.163 251.145 30.8954 251.145 31.7989C251.145 32.7024 250.505 33.4349 249.715 33.4349ZM234.221 30.3613C234.111 30.4905 233.918 30.5066 233.789 30.3971C233.66 30.2876 233.644 30.094 233.753 29.9648C233.802 29.9072 233.889 29.8113 234.012 29.6897C234.214 29.4887 234.442 29.2879 234.691 29.1C235.418 28.5524 236.178 28.2204 236.945 28.2204C238.055 28.2204 238.662 28.4858 239.275 29.1593C239.372 29.2657 239.47 29.3819 239.599 29.5409C239.637 29.5876 239.871 29.8793 239.944 29.9693C240.051 30.1006 240.031 30.2938 239.9 30.4008C239.769 30.5078 239.576 30.4881 239.469 30.3568C239.394 30.2647 239.159 29.9723 239.123 29.9274C239.001 29.7767 238.91 29.6686 238.822 29.5725C238.326 29.0273 237.883 28.8338 236.945 28.8338C236.334 28.8338 235.69 29.1152 235.06 29.5901C234.834 29.7601 234.627 29.9427 234.444 30.1251C234.334 30.2336 234.258 30.3166 234.221 30.3613ZM247.301 30.3526C247.196 30.4858 247.003 30.5088 246.87 30.4041C246.737 30.2994 246.714 30.1066 246.819 29.9734C246.864 29.9157 246.946 29.8196 247.06 29.6978C247.248 29.4964 247.46 29.2952 247.692 29.1068C248.372 28.5554 249.084 28.2204 249.807 28.2204C250.848 28.2204 251.421 28.49 251.994 29.1678C252.084 29.2742 252.175 29.3905 252.295 29.5496C252.33 29.5963 252.547 29.888 252.615 29.978C252.717 30.1131 252.691 30.3054 252.556 30.4076C252.421 30.5098 252.228 30.4832 252.126 30.3481C252.057 30.256 251.839 29.9636 251.805 29.9187C251.692 29.7681 251.607 29.66 251.526 29.564C251.069 29.0231 250.667 28.8338 249.807 28.8338C249.251 28.8338 248.659 29.1123 248.078 29.5833C247.869 29.7528 247.677 29.935 247.507 30.117C247.406 30.2252 247.336 30.3081 247.301 30.3526ZM245.15 35.991H247.562L244.865 29.0472C244.803 28.8894 244.881 28.7116 245.039 28.6502C245.197 28.5888 245.374 28.667 245.436 28.8249L248.295 36.1866C248.374 36.3877 248.225 36.6045 248.01 36.6045H245.15C244.981 36.6045 244.844 36.4672 244.844 36.2978C244.844 36.1284 244.981 35.991 245.15 35.991ZM243.661 40.249C243.512 40.329 243.326 40.2728 243.246 40.1235C243.166 39.9741 243.222 39.7882 243.371 39.7082C244.481 39.113 245.55 39.113 246.536 39.717C246.68 39.8055 246.725 39.9943 246.637 40.1388C246.549 40.2832 246.36 40.3287 246.216 40.2402C245.422 39.7536 244.584 39.7536 243.661 40.249Z" fill="#263E4B"/>
<path fill-rule="evenodd" clip-rule="evenodd" d="M18.2815 219.913L34.6227 270.423L115.308 259.585V200.487L35.5994 216.446L34.6227 223.39L29.3953 217.688L18.2815 219.913Z" fill="white"/>
<path d="M29.6211 217.294C29.5486 217.215 29.4402 217.18 29.3351 217.201L18.2212 219.426C18.0416 219.462 17.9335 219.646 17.9899 219.821L34.3311 270.33C34.3767 270.471 34.5166 270.559 34.6634 270.539L115.348 259.701C115.5 259.681 115.614 259.551 115.614 259.398V200.3C115.614 200.106 115.437 199.961 115.247 199.999L35.5391 215.958C35.4115 215.984 35.314 216.087 35.2959 216.216L34.4096 222.517L29.6211 217.294ZM29.2861 217.835L34.3968 223.41C34.5718 223.6 34.8899 223.502 34.926 223.245L35.8724 216.517L115.001 200.673V259.13L34.8354 269.898L18.6788 219.959L29.2861 217.835Z" fill="#263E4B"/>
<path fill-rule="evenodd" clip-rule="evenodd" d="M0.306152 360.513H27.4734C38.1744 332.632 47.9992 315.224 56.948 308.29C57.4766 307.881 54.3244 303.34 47.4915 294.667C51.9206 298.173 54.9845 300.423 56.6834 301.415C57.4834 301.883 57.5515 295.203 56.8877 281.375L64.2021 303.541C66.9868 302.141 69.1105 301.16 70.5734 300.597C91.1361 292.69 108.022 312.662 121.231 360.513H397.398" fill="white"/>
<path d="M56.529 301.582C56.8205 301.753 57.0834 301.595 57.2269 301.288C57.32 301.089 57.3917 300.787 57.4498 300.371C57.5606 299.578 57.6239 298.344 57.6411 296.661C57.6714 293.685 57.5569 289.297 57.2976 283.497L63.9114 303.539C63.97 303.717 64.1728 303.801 64.34 303.717C67.1164 302.321 69.2321 301.344 70.6836 300.786C91.0045 292.972 107.77 312.801 120.936 360.497C120.973 360.63 121.094 360.722 121.231 360.722H397.398C397.567 360.722 397.705 360.585 397.705 360.416C397.705 360.246 397.567 360.109 397.398 360.109H121.465C108.222 312.266 91.2358 292.226 70.4637 300.214C69.0458 300.759 67.0197 301.691 64.3821 303.01L57.1789 281.182C57.0671 280.843 56.5648 280.936 56.5819 281.292C56.9135 288.201 57.0623 293.322 57.0283 296.655C57.0114 298.313 56.9492 299.525 56.8429 300.286C56.7993 300.598 56.7487 300.828 56.6963 300.969C54.9866 299.946 51.9783 297.73 47.6819 294.329C47.397 294.104 47.0262 294.474 47.251 294.759C50.664 299.091 53.157 302.39 54.7289 304.655C55.5105 305.781 56.0628 306.649 56.3838 307.255C56.5381 307.546 56.6364 307.772 56.6782 307.926C56.6864 307.956 56.6919 307.981 56.6951 308.002C47.7272 314.998 37.928 332.36 27.2631 360.109H0.306398C0.137179 360.109 0 360.246 0 360.416C0 360.585 0.137179 360.722 0.306398 360.722H27.4737C27.6005 360.722 27.7143 360.644 27.7597 360.526C38.4415 332.694 48.2452 315.324 57.1359 308.435C57.6382 308.046 57.0231 306.885 55.2323 304.305C53.9038 302.391 51.9257 299.749 49.2973 296.376C52.6756 299.004 55.0839 300.738 56.529 301.582Z" fill="#263E4B"/>
<path d="M240.207 0H228.603C223.389 0 219.157 4.20511 219.105 9.41217L212.216 19.3541C212.075 19.5575 212.22 19.8357 212.467 19.8357H259.04C259.31 19.8357 259.448 19.5107 259.26 19.316L249.296 8.97516C249.229 4.00692 245.185 0 240.207 0ZM219.662 9.68368C219.698 9.63234 219.717 9.57134 219.717 9.50885C219.717 4.59607 223.695 0.613474 228.603 0.613474H240.207C244.889 0.613474 248.684 4.41296 248.684 9.09986C248.684 9.17931 248.715 9.25565 248.77 9.31283L258.319 19.2222H213.053L219.662 9.68368Z" fill="#263E4B"/>
<path fill-rule="evenodd" clip-rule="evenodd" d="M248.866 9.30424L219.28 9.71323L217.238 12.7806H252.167L248.866 9.30424Z" fill="#BAD9EA"/>
<path d="M249.064 8.79319L219.478 9.20221C219.377 9.2036 219.284 9.25468 219.228 9.33877L217.185 12.4061C217.049 12.61 217.195 12.883 217.44 12.883H252.369C252.639 12.883 252.777 12.5603 252.591 12.3649L249.29 8.88858C249.231 8.82661 249.149 8.79204 249.064 8.79319ZM251.655 12.2695H218.012L219.648 9.81339L248.938 9.40849L251.655 12.2695Z" fill="#263E4B"/>
<path fill-rule="evenodd" clip-rule="evenodd" d="M165.966 352.441L162.493 369.209H175.975H228.267C225.251 362.838 221.71 358.408 217.645 355.917C213.579 353.426 206.158 352.268 195.38 352.441L200.895 323.812L167.804 324.017L167.396 345.488L165.966 352.441Z" fill="white"/>
<path fill-rule="evenodd" clip-rule="evenodd" d="M254.82 349.987V369.413L262.991 369.209H315.283C312.267 362.838 308.726 358.408 304.661 355.917C300.595 353.426 293.174 352.267 282.396 352.441L287.503 324.271L251.756 324.016L254.412 345.488L254.82 349.987Z" fill="white"/>
<path fill-rule="evenodd" clip-rule="evenodd" d="M167.396 345.693C170.524 346.199 172.975 348.176 174.75 351.623C176.524 355.07 177.478 359.705 177.609 365.528L163.311 365.324" fill="#BAD9EA"/>
<path fill-rule="evenodd" clip-rule="evenodd" d="M254.822 345.693C260.401 347.017 264.078 349.403 265.852 352.85C267.627 356.297 268.444 360.523 268.304 365.528L254.822 365.324V345.693Z" fill="#BAD9EA"/>
<path d="M177.557 323.854L179.831 308.168H174.953V307.555H179.92L181.136 299.171H176.792V298.558H200.486V299.171H195.737L194.183 307.555H198.648V308.168H194.07L191.179 323.77L201.266 323.708L196.748 347.163L198.308 342.884C198.374 342.704 198.456 342.531 198.553 342.366C199.438 340.856 201.38 340.351 202.89 341.236C203.144 341.386 203.373 341.574 203.568 341.795C204.593 342.952 204.486 344.72 203.329 345.745L196.067 352.176C197.433 351.836 200.79 350.974 205.72 349.691C205.884 349.648 206.051 349.746 206.094 349.91C206.136 350.074 206.038 350.241 205.875 350.284C202.283 351.218 199.692 351.889 197.983 352.323C207.414 352.366 214.017 353.54 217.805 355.861C221.927 358.386 225.504 362.862 228.543 369.283L228.751 369.72H162.117L165.665 352.584L167.09 345.659L167.503 323.917L177.557 323.854ZM178.176 323.851L184.102 323.814L186.496 308.168H180.45L178.176 323.851ZM184.722 323.81L190.555 323.774L193.446 308.168H187.116L184.722 323.81ZM195.639 352.948C195.613 352.953 195.586 352.955 195.559 352.953L188.648 353.156C188.479 353.161 188.338 353.028 188.333 352.859C188.328 352.69 188.461 352.549 188.63 352.544L194.802 352.362L187.33 345.745C186.173 344.72 186.066 342.952 187.09 341.795C187.286 341.574 187.515 341.386 187.769 341.236C189.279 340.351 191.22 340.856 192.106 342.366C192.203 342.531 192.285 342.704 192.35 342.884L195.329 351.053L195.425 350.79L200.523 324.325L168.105 324.526L167.706 345.463C174.067 347.354 177.713 353.899 177.911 365.018H225.559C223.146 361.079 220.454 358.202 217.485 356.383C213.513 353.95 206.226 352.798 195.639 352.948ZM196.018 350.954L195.914 351.493L202.922 345.286C203.826 344.486 203.91 343.105 203.11 342.201C202.957 342.029 202.778 341.881 202.58 341.765C201.362 341.05 199.796 341.458 199.081 342.676C199.003 342.809 198.937 342.949 198.884 343.094L196.018 350.954ZM225.927 365.63H163.589L162.869 369.107H227.78C227.182 367.872 226.565 366.713 225.927 365.63ZM163.716 365.018H177.298C177.104 354.203 173.618 347.917 167.629 346.08L166.266 352.708L163.716 365.018ZM191.775 343.094C191.722 342.949 191.656 342.809 191.578 342.676C190.863 341.458 189.297 341.05 188.079 341.765C187.881 341.881 187.702 342.029 187.549 342.201C186.749 343.105 186.833 344.486 187.736 345.286L194.882 351.614L191.775 343.094ZM195.114 299.171H188.494L187.21 307.555H193.56L195.114 299.171ZM187.874 299.171H181.755L180.539 307.555H186.59L187.874 299.171Z" fill="#263E4B"/>
<path fill-rule="evenodd" clip-rule="evenodd" d="M164.74 105.62H158L165.353 93.9637" fill="#BAD9EA"/>
<path d="M258.938 323.751L256.678 308.168H252.779V307.555H256.589L255.374 299.171H251.553V298.558H276.27V299.171H270.991L271.835 307.555H276.474V308.168H271.897L273.475 323.834L287.868 323.917L283.208 350.932L286.143 342.884C286.209 342.704 286.29 342.531 286.387 342.366C287.273 340.856 289.215 340.351 290.725 341.236C290.979 341.386 291.208 341.574 291.403 341.795C292.428 342.952 292.321 344.72 291.164 345.745L284.226 351.888C285.955 351.449 288.859 350.7 292.738 349.691C292.902 349.648 293.069 349.746 293.112 349.91C293.154 350.074 293.056 350.241 292.892 350.284C289.302 351.218 286.713 351.888 285.004 352.323C294.542 352.35 301.212 353.523 305.027 355.861C309.149 358.386 312.726 362.862 315.765 369.283L315.973 369.72H254.518L254.515 369.416L254.314 345.733L251.408 323.708L258.938 323.751ZM259.558 323.755L265.71 323.79L264.326 308.168H257.297L259.558 323.755ZM266.326 323.794L272.858 323.831L271.281 308.168H264.941L266.326 323.794ZM254.885 345.393C263.759 347.181 268.339 353.754 268.604 365.018H312.78C310.368 361.079 307.676 358.202 304.707 356.383C300.75 353.959 293.5 352.806 282.976 352.946C282.936 352.956 282.894 352.956 282.855 352.948C282.782 352.949 282.709 352.95 282.636 352.951C282.616 352.954 282.597 352.954 282.576 352.953L275.666 353.156C275.497 353.161 275.355 353.028 275.35 352.859C275.345 352.69 275.479 352.549 275.648 352.544L281.819 352.362L274.348 345.745C273.191 344.72 273.083 342.952 274.108 341.795C274.304 341.574 274.533 341.386 274.787 341.236C276.296 340.351 278.238 340.856 279.124 342.366C279.221 342.531 279.303 342.704 279.368 342.884L282.495 351.459L287.141 324.525L252.107 324.325L254.885 345.393ZM254.927 346.027L255.09 365.018H267.991C267.731 354.099 263.384 347.8 254.927 346.027ZM313.149 365.63H255.096L255.125 369.107H315.002C314.404 367.872 313.787 366.713 313.149 365.63ZM278.792 343.094C278.74 342.949 278.674 342.809 278.595 342.676C277.881 341.458 276.315 341.05 275.097 341.765C274.898 341.881 274.719 342.029 274.567 342.201C273.767 343.105 273.85 344.486 274.754 345.286L281.9 351.614L278.792 343.094ZM286.719 343.094L283.612 351.614L290.757 345.286C291.661 344.486 291.745 343.105 290.944 342.201C290.792 342.029 290.613 341.881 290.414 341.765C289.197 341.05 287.63 341.458 286.916 342.676C286.838 342.809 286.772 342.949 286.719 343.094ZM270.375 299.171H264.144L264.887 307.555H271.219L270.375 299.171ZM263.529 299.171H255.993L257.209 307.555H264.272L263.529 299.171Z" fill="#263E4B"/>
<path d="M59.6083 241.787L60.2112 245.594L56.7088 246.148L57.161 249.003L52.6579 249.717L52.2057 246.862L39.8473 248.819L39.2444 245.012L49.8813 232.185L54.3843 231.472L56.1059 242.342L59.6083 241.787ZM44.0977 244.243L51.6028 243.055L50.5953 236.693L44.0977 244.243ZM72.1359 246.888C65.1811 247.99 61.3711 245.307 60.4469 239.472C59.5266 233.661 62.3251 229.958 69.2799 228.856C76.2096 227.759 80.0446 230.437 80.9609 236.223C81.8812 242.033 79.0656 245.791 72.1359 246.888ZM71.5369 243.107C75.4896 242.481 76.9775 240.217 76.4578 236.936C75.9422 233.68 73.8315 232.012 69.8788 232.638C65.9261 233.264 64.4303 235.478 64.95 238.759C65.4736 242.065 67.5842 243.733 71.5369 243.107ZM103.138 234.892L103.741 238.699L100.239 239.254L100.691 242.109L96.1876 242.822L95.7354 239.967L83.377 241.925L82.7741 238.118L93.411 225.291L97.914 224.578L99.6356 235.447L103.138 234.892ZM87.6274 237.349L95.1325 236.16L94.125 229.799L87.6274 237.349Z" fill="#BAD9EA"/>
<path d="M60.0577 241.235L60.7565 245.647L57.2542 246.202L57.7064 249.057L52.598 249.866L52.1458 247.011L39.7874 248.968L39.1149 244.722L49.914 231.699L54.8338 230.92L56.5554 241.79L60.0577 241.235ZM56.046 242.491L54.3244 231.621L50.2381 232.268L39.7635 244.9L40.2968 248.267L52.6552 246.31L53.1074 249.165L57.0052 248.547L56.553 245.692L60.0554 245.138L59.5484 241.936L56.046 242.491ZM43.5153 244.475L50.9892 235.791L52.1481 243.108L43.5153 244.475ZM51.447 242.599L50.5909 237.193L45.0696 243.609L51.447 242.599ZM72.3786 246.99C65.3867 248.097 61.3086 245.44 60.3391 239.318C59.374 233.225 62.4322 229.46 69.4267 228.352C76.3952 227.248 80.497 229.904 81.4583 235.973C82.424 242.071 79.3445 245.886 72.3786 246.99ZM72.2827 246.384C78.9273 245.332 81.7635 241.818 80.853 236.069C79.9471 230.35 76.1704 227.904 69.5226 228.957C62.8486 230.014 60.0346 233.479 60.9443 239.222C61.8586 244.995 65.6121 247.441 72.2827 246.384ZM71.7796 243.208C67.7853 243.84 65.4112 242.198 64.8421 238.605C64.2774 235.04 66.0296 232.767 70.0257 232.134C74.0124 231.502 76.393 233.137 76.9552 236.687C77.5218 240.264 75.7646 242.577 71.7796 243.208ZM71.6838 242.603C75.3401 242.023 76.8627 240.02 76.35 236.782C75.8419 233.575 73.781 232.16 70.1215 232.739C66.4522 233.32 64.9369 235.286 65.4474 238.509C65.9625 241.762 68.0176 243.183 71.6838 242.603ZM103.587 234.34L104.286 238.752L100.784 239.307L101.236 242.162L96.1277 242.971L95.6755 240.116L83.3171 242.074L82.6445 237.827L93.4437 224.805L98.3635 224.026L100.085 234.895L103.587 234.34ZM99.5757 235.596L97.8541 224.727L93.7678 225.374L83.2932 238.005L83.8265 241.373L96.1849 239.415L96.6371 242.27L100.535 241.653L100.083 238.798L103.585 238.243L103.078 235.042L99.5757 235.596ZM87.045 237.581L94.5189 228.896L95.6778 236.214L87.045 237.581ZM94.9767 235.704L94.1206 230.299L88.5993 236.714L94.9767 235.704Z" fill="#263E4B"/>
<path d="M165.274 93.6348C165.311 93.4955 165.343 93.3658 165.369 93.2461L165.704 86.1744C166.259 74.4516 175.915 65.2327 187.638 65.2327H210.701V65.8462H187.638C176.242 65.8462 166.856 74.8078 166.316 86.2034L166.219 88.2595C167.302 84.1011 169.39 80.3809 172.488 77.1863C177.156 72.3708 182.938 74.7708 189.706 84.1733C189.805 84.3107 189.774 84.5025 189.636 84.6015C189.499 84.7005 189.308 84.6694 189.209 84.532C182.631 75.394 177.246 73.1588 172.927 77.6136C168.862 81.8062 166.581 86.9191 166.068 92.7636C166.053 92.9261 166.024 93.1133 165.979 93.3258L165.047 112.996L164.435 112.967L164.778 105.722H158.205C157.963 105.722 157.817 105.456 157.946 105.251L165.274 93.6348ZM164.807 105.109L165.298 94.746L158.761 105.109H164.807Z" fill="#263E4B"/>
<path d="M255.703 121.091C255.534 121.084 255.402 120.942 255.409 120.772C255.415 120.603 255.558 120.471 255.727 120.478C257.984 120.564 259.056 119.267 259.01 116.431C258.964 113.583 258.026 112.256 256.18 112.288C256.01 112.291 255.871 112.156 255.868 111.987C255.865 111.818 256 111.678 256.169 111.675C258.415 111.636 259.572 113.272 259.623 116.421C259.674 119.583 258.344 121.191 255.703 121.091ZM255.05 142.667C254.881 142.652 254.757 142.503 254.772 142.334C254.788 142.165 254.937 142.041 255.105 142.056C257.355 142.261 258.493 141.022 258.596 138.187C258.699 135.34 257.832 133.966 255.986 133.902C255.817 133.896 255.685 133.754 255.69 133.585C255.696 133.415 255.838 133.283 256.007 133.289C258.252 133.367 259.322 135.062 259.208 138.21C259.093 141.37 257.682 142.906 255.05 142.667ZM241.656 166.543C241.501 166.475 241.431 166.294 241.499 166.139C241.567 165.984 241.747 165.913 241.902 165.981C243.985 166.894 245.373 166.295 246.213 164.116C247.059 161.923 246.615 160.57 244.877 159.902C244.719 159.842 244.64 159.664 244.701 159.506C244.762 159.348 244.939 159.269 245.097 159.329C247.18 160.129 247.744 161.85 246.785 164.337C245.82 166.839 244.061 167.597 241.656 166.543ZM219.596 84.8876L220.188 85.0457C219.07 89.2421 216.738 91.7185 213.211 92.4246L213.091 91.8231C216.373 91.1659 218.535 88.8708 219.596 84.8876Z" fill="#263E4B"/>
<path d="M185.278 93.0197L186.095 96.0871C186.139 96.2508 186.307 96.3481 186.47 96.3044C186.634 96.2608 186.731 96.0927 186.687 95.929L185.87 92.8617C185.827 92.698 185.659 92.6007 185.495 92.6443C185.332 92.688 185.235 92.856 185.278 93.0197Z" fill="#263E4B"/>
<path d="M185.505 93.2396L188.161 93.853C188.326 93.8911 188.49 93.7882 188.528 93.6231C188.566 93.4581 188.464 93.2934 188.299 93.2553L185.643 92.6418C185.478 92.6037 185.314 92.7066 185.276 92.8717C185.238 93.0368 185.341 93.2015 185.505 93.2396Z" fill="#263E4B"/>
<path d="M300.81 95.1818C298.745 92.6877 295.153 92.4241 292.192 94.374C291.039 95.1336 290.198 96.2156 289.802 97.4521C288.806 100.568 292.72 108.53 301.548 121.538C301.643 121.678 301.834 121.714 301.974 121.619C302.114 121.524 302.15 121.333 302.055 121.193C293.37 108.396 289.478 100.478 290.386 97.6391C290.738 96.5388 291.491 95.5705 292.529 94.8865C295.244 93.0986 298.486 93.3365 300.338 95.5734C300.446 95.7038 300.64 95.7219 300.77 95.6137C300.9 95.5056 300.918 95.3122 300.81 95.1818Z" fill="#263E4B"/>
</svg>
