<svg width="15" height="16" viewBox="0 0 15 16" fill="none" xmlns="http://www.w3.org/2000/svg">
<path fill-rule="evenodd" clip-rule="evenodd" d="M10.6143 0.891554C10.4971 0.774344 10.3381 0.708496 10.1723 0.708496C10.0066 0.708496 9.8476 0.774344 9.73039 0.891554L2.07006 8.55188C1.99154 8.6304 1.93536 8.72843 1.90729 8.83587L1.07396 12.0262C1.01788 12.2409 1.07983 12.4692 1.23673 12.6261C1.39363 12.783 1.62194 12.845 1.83662 12.7889L5.02698 11.9556C5.13442 11.9275 5.23245 11.8713 5.31097 11.7928L12.9713 4.13246C13.2154 3.88838 13.2154 3.49265 12.9713 3.24858L10.6143 0.891554ZM3.07386 9.31585L10.1723 2.21738L11.6455 3.69052L4.547 10.789L2.55303 11.3098L3.07386 9.31585Z" fill="black"/>
<path d="M1.3335 14.0418C0.988318 14.0418 0.708496 14.3217 0.708496 14.6668C0.708496 15.012 0.988318 15.2918 1.3335 15.2918H13.8335C14.1787 15.2918 14.4585 15.012 14.4585 14.6668C14.4585 14.3217 14.1787 14.0418 13.8335 14.0418H1.3335Z" fill="black"/>
</svg>
